<svg xmlns="http://www.w3.org/2000/svg" viewBox="0 0 260 50.572" width="260" height="50.572">
  <defs>
    <style>
      .cls-1 {
        fill: #004071;
      }
    </style>
  </defs>
  <path id="ethnos-logo" class="cls-1" d="M0,49.534H43.784v-16.7H30.205l-.831,4.087H21.06v-6.3H31.937V18.705H21.06V13.578h6.651l.762,3.464H41.982V1.108H.069v12.47H3.187V36.44L0,37.41Zm67.407-18.5H78.63V20.021H67.407Zm15.31-5.75c0,6.374-3.6,11.154-9.491,11.154-5.75,0-9.63-4.78-9.63-11.154,0-6.027,3.672-10.877,9.63-10.877,6.235,0,9.491,4.849,9.491,10.877m17.527,0C100.245,11.292,89.576,0,73.088,0c-16.419,0-27.3,11.223-27.3,25.286,0,14.271,10.738,25.286,27.088,25.286,16.211-.069,27.365-11.084,27.365-25.286M154.213,14.2l3.672-1.039V1.108H136.547V21.2h-.277L124.423,1.108H102.808V13.648h3.533V36.3l-3.533.97V49.534h21.268V28.612h.277l11.777,20.853h18.082Zm42.4,11.084c0,6.374-3.6,11.154-9.491,11.154-5.75,0-9.63-4.78-9.63-11.154,0-6.027,3.672-10.877,9.63-10.877,6.235,0,9.491,4.849,9.491,10.877m17.527,0C214.138,11.292,203.469,0,186.981,0c-16.35,0-27.226,11.223-27.226,25.286,0,14.271,10.738,25.286,27.088,25.286,16.142-.069,27.3-11.084,27.3-25.286M245.59,36.925h-7.066l9.838-12.193-9.63-11.154h5.75l.97,3.464h13.232V1.108H215.8V12.955L226.539,24.8,214.831,39.142V49.6H260V32.838H246.837Z"/>
</svg>
